HIERARCHY
ROOT Model_Hips
{
	OFFSET 0.000000 96.915077 0.000000
	CHANNELS 6 Xposition Yposition Zposition Xrotation Yrotation Zrotation
	JOINT Model_Spine
	{
		OFFSET 0.000000 11.137703 -1.289900
		CHANNELS 3 Xrotation Yrotation Zrotation
		JOINT Model_Spine1
		{
			OFFSET 0.000000 12.993942 -1.504922
			CHANNELS 3 Xrotation Yrotation Zrotation
			JOINT Model_Spine2
			{
				OFFSET 0.000000 14.850220 -1.719911
				CHANNELS 3 Xrotation Yrotation Zrotation
				JOINT Model_Neck
				{
					OFFSET 0.000000 16.706543 -1.934903
					CHANNELS 3 Xrotation Yrotation Zrotation
					JOINT Model_Head
					{
						OFFSET 0.000000 10.471298 2.002100
						CHANNELS 3 Xrotation Yrotation Zrotation
						JOINT Model_HeadTop_End
						{
							OFFSET 0.000000 20.842606 3.985100
							CHANNELS 3 Xrotation Yrotation Zrotation
							End Site
							{
								OFFSET 0.000000 21.220154 0.000000
							}
						}
					}
				}
				JOINT Model_LeftShoulder
				{
					OFFSET 7.008500 14.768600 -1.919946
					CHANNELS 3 Xrotation Yrotation Zrotation
					JOINT Model_LeftArm
					{
						OFFSET 14.126271 -3.718048 0.029937
						CHANNELS 3 Xrotation Yrotation Zrotation
						JOINT Model_LeftForeArm
						{
							OFFSET 28.282801 0.000000 0.000000
							CHANNELS 3 Xrotation Yrotation Zrotation
							JOINT Model_LeftHand
							{
								OFFSET 26.204689 0.000000 0.000000
								CHANNELS 3 Xrotation Yrotation Zrotation
								End Site
								{
									OFFSET 26.204704 0.000000 0.000000
								}
							}
						}
					}
				}
				JOINT Model_RightShoulder
				{
					OFFSET -7.008500 14.768555 -1.949840
					CHANNELS 3 Xrotation Yrotation Zrotation
					JOINT Model_RightArm
					{
						OFFSET -14.126281 -3.718018 -0.029932
						CHANNELS 3 Xrotation Yrotation Zrotation
						JOINT Model_RightForeArm
						{
							OFFSET -28.283798 0.000000 -0.000001
							CHANNELS 3 Xrotation Yrotation Zrotation
							JOINT Model_RightHand
							{
								OFFSET -26.204193 0.000000 -0.000001
								CHANNELS 3 Xrotation Yrotation Zrotation
								End Site
								{
									OFFSET -26.204208 0.000000 -0.000001
								}
							}
						}
					}
				}
			}
		}
	}
	JOINT Model_LeftUpLeg
	{
		OFFSET 8.327700 -6.193199 -0.402800
		CHANNELS 3 Xrotation Yrotation Zrotation
		JOINT Model_LeftLeg
		{
			OFFSET 0.735802 -42.108742 -0.610721
			CHANNELS 3 Xrotation Yrotation Zrotation
			JOINT Model_LeftFoot
			{
				OFFSET -0.735806 -36.833748 -0.172876
				CHANNELS 3 Xrotation Yrotation Zrotation
				JOINT Model_LeftToeBase
				{
					OFFSET -0.565857 -11.977769 16.297714
					CHANNELS 3 Xrotation Yrotation Zrotation
					JOINT Model_LeftToe_End
					{
						OFFSET -0.111712 -0.312793 7.857784
						CHANNELS 3 Xrotation Yrotation Zrotation
						End Site
						{
							OFFSET -0.111712 -0.312793 7.857784
						}
					}
				}
			}
		}
	}
	JOINT Model_RightUpLeg
	{
		OFFSET -8.327700 -6.193199 -0.516500
		CHANNELS 3 Xrotation Yrotation Zrotation
		JOINT Model_RightLeg
		{
			OFFSET -0.735785 -42.108738 -0.434061
			CHANNELS 3 Xrotation Yrotation Zrotation
			JOINT Model_RightFoot
			{
				OFFSET 0.735776 -36.833748 -0.021630
				CHANNELS 3 Xrotation Yrotation Zrotation
				JOINT Model_RightToeBase
				{
					OFFSET 0.565817 -11.977745 15.903093
					CHANNELS 3 Xrotation Yrotation Zrotation
					JOINT Model_RightToe_End
					{
						OFFSET 0.111702 -0.312791 7.811342
						CHANNELS 3 Xrotation Yrotation Zrotation
						End Site
						{
							OFFSET 0.111702 -0.312791 7.811342
						}
					}
				}
			}
		}
	}
}
MOTION
Frames: 10
Frame Time: 0.016667
-3.594844 78.648285 40.681942 27.428469 -0.731299 -0.312173 2.028834 -0.662183 -0.363854 4.055223 -1.139568 -0.600505 4.055208 -1.139566 -0.600505 -4.348308 1.458995 -1.709511 -4.348301 1.458995 -1.709514 -0.000002 -0.000000 -0.000000 -0.128744 -7.865406 -31.657223 -24.558802 -13.030647 -35.590531 9.234386 -56.687626 -10.352817 -0.000001 -0.000000 0.000000 0.648582 0.527283 8.186648 26.202527 -26.921899 65.563887 5.893350 57.131414 19.599240 -0.000001 0.000000 0.000001 -44.077437 4.847831 8.072237 81.004329 2.661051 -2.781447 -46.901693 1.857438 -3.558291 -12.818941 0.594805 -4.101722 0.000000 0.000000 -0.000000 -19.486871 -11.265810 -4.832853 80.409686 0.163802 -2.593262 -12.367263 3.708395 -1.718901 2.032070 1.310272 7.791256 -0.000001 -0.000000 0.000000 
-3.941039 78.562241 43.362167 27.553075 1.763938 -0.891038 2.224162 -0.927194 -0.424696 4.448296 -1.749217 -0.469618 4.448290 -1.749216 -0.469618 -4.237965 1.352658 -2.170960 -4.238007 1.352662 -2.170959 -0.000001 -0.000000 -0.000000 -0.520984 -9.118765 -33.354747 -31.613070 -22.011429 -38.310603 10.927955 -51.762087 -10.078722 -0.000002 0.000004 0.000001 0.566451 -1.125056 6.839001 26.871026 -25.493317 66.151154 7.976702 51.208517 22.750518 -0.000000 -0.000000 -0.000000 -41.482010 3.786815 7.110006 79.125904 2.734072 -1.714284 -47.566520 2.139516 -4.127522 -12.559872 0.152824 -4.465903 0.000000 0.000000 -0.000000 -24.834382 -10.315948 -4.846312 91.229942 -0.907532 -1.149235 -13.281490 2.727909 -4.628476 2.910206 0.601447 6.156501 0.000001 -0.000000 0.000000 
-4.236605 78.453751 45.968227 27.965349 3.684822 -1.486923 2.378105 -1.204060 -0.461177 4.762845 -2.355252 -0.271076 4.762829 -2.355253 -0.271077 -4.161363 1.305916 -2.610390 -4.161368 1.305916 -2.610396 0.000002 0.000001 0.000000 -0.892826 -10.305738 -33.809105 -39.494951 -30.231401 -43.040854 12.216364 -47.241393 -9.739062 -0.000001 0.000003 0.000001 0.412542 -2.855393 5.134895 27.553026 -23.665094 66.220002 10.010855 46.428720 25.949069 -0.000001 0.000000 0.000000 -39.023992 3.039707 6.581622 76.845188 2.820236 -0.660200 -48.509721 2.407470 -4.586672 -11.762539 -0.183985 -4.871681 -0.000000 -0.000002 -0.000000 -31.684554 -8.834027 -4.921048 101.690431 -2.885478 -0.043323 -15.376851 2.072247 -5.792344 2.463137 0.343264 4.606515 0.000000 0.000000 0.000000 
-4.489617 78.385536 48.685337 28.633492 4.891334 -2.201446 2.476434 -1.480665 -0.461169 4.972581 -2.938442 0.057508 4.972597 -2.938443 0.057508 -4.140365 1.334689 -2.977348 -4.140360 1.334689 -2.977347 0.000004 -0.000000 -0.000000 -1.122960 -11.287532 -32.691153 -48.100887 -36.929187 -49.384139 12.858789 -43.474475 -9.261028 -0.000002 0.000003 -0.000002 0.185526 -4.555008 3.298717 28.373564 -21.960388 65.578279 12.136568 43.050785 28.791932 -0.000001 0.000001 0.000001 -36.469276 2.717328 6.627536 73.945575 2.713643 0.398283 -49.481517 2.652100 -4.901672 -10.766589 -0.277276 -5.251896 0.000001 0.000001 0.000000 -39.986038 -7.079477 -4.612707 110.763279 -5.952584 0.498651 -17.935232 1.353877 -5.006190 1.397209 0.538806 2.898973 0.000000 -0.000000 0.000000 
-4.681309 78.429703 51.699783 29.498351 5.302018 -3.164450 2.519364 -1.763628 -0.330456 5.076432 -3.479798 0.550084 5.076428 -3.479796 0.550084 -4.213008 1.453925 -3.217332 -4.213004 1.453924 -3.217332 0.000002 -0.000000 -0.000001 -1.084891 -11.894179 -29.884622 -56.843583 -41.667275 -56.407216 12.617381 -40.948248 -8.614200 0.000002 -0.000000 0.000000 -0.073320 -6.053740 1.587424 29.344432 -21.047376 64.043836 14.196617 41.208970 31.270402 -0.000000 0.000002 0.000000 -33.332921 2.932520 7.303738 69.709990 2.419778 1.473369 -50.609188 2.865304 -5.018724 -9.148259 -0.094524 -5.642991 0.000001 -0.000001 -0.000000 -49.660775 -5.427985 -3.722907 117.563320 -9.189367 0.522779 -20.024962 0.430510 -2.917655 0.064577 0.553191 1.058856 0.000000 0.000001 -0.000000 
-4.781792 78.611511 55.094311 30.469112 4.872822 -4.395523 2.519080 -2.035869 -0.018199 5.094666 -3.962584 1.204541 5.094677 -3.962584 1.204542 -4.419939 1.670415 -3.280035 -4.419938 1.670415 -3.280032 0.000000 -0.000000 -0.000000 -0.725393 -11.956690 -25.507927 -64.655138 -44.462978 -62.758565 11.314698 -40.184995 -7.831514 -0.000001 0.000003 0.000003 -0.292563 -7.156446 0.184449 30.330637 -21.541631 61.534841 15.896272 40.941971 33.526588 -0.000000 -0.000004 -0.000000 -29.424219 3.778555 8.468139 63.827325 2.255369 2.567306 -51.509807 3.086226 -5.084153 -6.990490 0.209454 -6.145447 -0.000000 0.000000 -0.000000 -60.079655 -4.274895 -2.414969 121.571753 -10.958970 0.239702 -22.427292 0.032410 -1.568065 -0.391674 0.079693 0.157562 -0.000001 0.000000 -0.000000 
-4.785233 78.955658 58.829132 31.435341 3.617308 -5.833555 2.495796 -2.251750 0.497743 5.061945 -4.375910 1.988637 5.061959 -4.375912 1.988635 -4.787543 1.979785 -3.148188 -4.787572 1.979783 -3.148185 -0.000001 0.000000 0.000001 -0.126524 -11.362793 -19.908311 -70.441694 -45.724596 -67.188154 8.883728 -41.574976 -7.023130 0.000000 0.000000 0.000002 -0.411520 -7.688540 -0.888975 31.086421 -23.765069 58.148269 16.928410 42.232473 35.624119 -0.000002 -0.000002 -0.000000 -25.294610 5.178152 9.822029 57.388574 2.909043 3.730534 -50.742674 3.410623 -5.562104 -5.994378 0.213184 -6.898319 -0.000001 -0.000002 -0.000000 -70.762269 -4.245091 -0.536340 122.725044 -11.309861 -0.114332 -24.741867 0.107388 -1.222941 -0.363884 -0.479700 -0.179390 0.000000 0.000001 0.000000 
-4.709657 79.422531 62.779858 32.292728 1.634854 -7.293124 2.469422 -2.361271 1.134870 5.018370 -4.716969 2.853109 5.018375 -4.716969 2.853111 -5.312732 2.361716 -2.844792 -5.312745 2.361716 -2.844794 -0.000003 -0.000001 -0.000001 0.509800 -10.133180 -13.623443 -73.596798 -45.986393 -69.082282 5.401373 -45.228522 -6.364987 -0.000000 0.000001 0.000001 -0.416443 -7.542242 -1.797381 31.434132 -27.582006 54.226887 17.042650 45.026304 37.449914 0.000001 -0.000003 -0.000000 -20.977488 7.068809 10.880923 50.455482 4.910693 5.066671 -48.128972 3.829197 -6.734523 -7.826080 -0.152783 -8.007659 0.000001 -0.000002 0.000000 -81.108954 -5.630496 2.068478 121.047836 -11.242336 -0.337029 -25.732534 0.100223 -1.060523 -0.883450 -0.488302 -0.605552 -0.000002 -0.000001 -0.000000 
-4.564790 79.836845 66.830597 32.974050 -0.847806 -8.500233 2.453713 -2.371339 1.711725 5.001432 -4.990396 3.744957 5.001441 -4.990397 3.744959 -5.959043 2.768831 -2.364611 -5.958978 2.768827 -2.364631 -0.000000 0.000000 0.000001 0.969524 -8.468241 -7.310482 -74.096235 -45.662939 -68.547977 1.089559 -50.923473 -6.069242 -0.000002 0.000001 0.000002 -0.338401 -6.713912 -2.825377 31.523871 -32.428553 50.441852 16.064214 49.184100 38.783877 0.000001 -0.000003 -0.000000 -16.727185 9.279493 11.132820 43.615754 8.429960 6.805673 -43.550615 4.312423 -8.944702 -11.939976 -1.196628 -9.152357 0.000000 -0.000000 0.000000 -90.325352 -7.809457 4.742998 116.856791 -10.106588 -0.240474 -24.790491 0.027223 -1.072155 -2.339122 -0.286401 -0.939744 -0.000002 -0.000001 -0.000000 
-4.356335 80.112778 70.963120 33.447399 -3.594330 -9.363335 2.462829 -2.259718 2.198721 5.039774 -5.204681 4.616809 5.039774 -5.204681 4.616805 -6.653683 3.145428 -1.709777 -6.653685 3.145424 -1.709776 0.000000 0.000000 -0.000001 1.160358 -6.709825 -1.652252 -72.238690 -44.985019 -66.129222 -3.736210 -58.170310 -6.371586 -0.000001 0.000000 0.000001 -0.214217 -5.317877 -4.240104 31.942090 -37.518595 47.847975 13.854986 54.399294 39.490955 0.000001 -0.000000 0.000001 -12.626891 11.462724 10.703040 37.106679 12.899185 8.557576 -36.850551 4.766443 -12.498579 -17.994577 -3.326018 -9.803772 0.000000 0.000000 -0.000000 -97.385438 -10.401980 7.082125 110.330641 -8.366626 0.225800 -22.203615 -0.072905 -1.191515 -4.342529 0.182700 -0.907468 0.000001 0.000000 0.000000 
